<svg width="46" height="46" viewBox="0 0 46 46" fill="none" xmlns="http://www.w3.org/2000/svg">
<g clip-path="url(#clip0_669_582)">
<path d="M16.6724 45.4889C16.3698 45.4889 16.0856 45.3488 15.8955 45.0984C14.9561 43.8523 13.2929 41.4102 12.6837 39.0141L8.37093 37.8958C8.28146 37.8726 8.19996 37.8256 8.13514 37.7597C8.07033 37.6938 8.02463 37.6115 8.00293 37.5217L6.97969 33.3142C4.58667 32.705 2.1456 31.0428 0.901554 30.1044C0.588754 29.8683 0.44871 29.485 0.535599 29.1037C0.622488 28.7234 0.914843 28.4392 1.29818 28.3626L3.91609 27.8392C-1.80733 17.065 1.20515 9.15705 2.26622 6.98687C2.40524 6.70371 2.67307 6.50336 2.98484 6.45122C3.29662 6.39909 3.61555 6.50131 3.8384 6.72518L5.83378 8.72056C6.92551 4.3342 9.47084 1.69482 10.5196 0.760513C10.8866 0.433402 11.4407 0.429313 11.8087 0.749269C14.538 3.12287 15.1258 7.41007 15.229 9.82354L19.1114 5.94114C19.4007 5.65185 19.829 5.57211 20.2032 5.73976C20.5773 5.90638 20.8042 6.27847 20.7807 6.68736L20.6611 8.8422C23.9496 5.59051 27.834 3.27416 29.3612 2.42469C29.6516 2.26318 30.0001 2.25909 30.2935 2.41345C30.5869 2.5678 30.7811 2.85811 30.8118 3.18829L31.1266 6.56469C36.7908 2.75998 41.1556 2.26522 42.7728 2.22945C43.0365 2.22434 43.2972 2.32758 43.4853 2.51465C43.5783 2.60812 43.6515 2.71939 43.7005 2.84182C43.7495 2.96424 43.7733 3.0953 43.7705 3.22714C43.7347 4.84429 43.24 9.20918 39.4352 14.8733L42.8116 15.1882C43.1418 15.2188 43.4321 15.413 43.5865 15.7064C43.7408 15.9998 43.7378 16.3484 43.5763 16.6387C42.7268 18.1659 40.4104 22.0514 37.1588 25.3388L39.3136 25.2192C39.7204 25.1947 40.0946 25.4237 40.2612 25.7968C40.4278 26.1709 40.3491 26.5992 40.0598 26.8885L36.1774 30.7709C38.5909 30.8742 42.8781 31.4619 45.2517 34.1913C45.5716 34.5593 45.5676 35.1133 45.2404 35.4803C44.3061 36.5281 41.6668 39.0744 37.2804 40.1662L39.2758 42.1615C39.4986 42.3844 39.6008 42.7033 39.5497 43.0141C39.4986 43.3248 39.2983 43.5937 39.0141 43.7327C37.8283 44.3123 34.9252 45.4756 30.7791 45.4766C27.3403 45.4766 23.046 44.6772 18.1628 42.0828L17.6394 44.7007C17.5628 45.0841 17.2786 45.3764 16.8973 45.4633C16.8216 45.4807 16.746 45.4889 16.6724 45.4889ZM18.1311 41.0381C18.2896 41.0381 18.447 41.077 18.5921 41.1546C28.8747 46.6389 36.3706 43.8738 38.5091 42.8423L36.5025 40.8357C36.3799 40.713 36.2921 40.56 36.2481 40.3922C36.2041 40.2245 36.2055 40.048 36.252 39.881C36.3471 39.5406 36.62 39.2768 36.9645 39.193C41.1802 38.1636 43.7316 35.6316 44.4513 34.8312C42.2075 32.292 37.8242 31.8586 36.0384 31.7901C35.6438 31.7747 35.3096 31.5376 35.1654 31.1696C35.0213 30.8016 35.1051 30.3988 35.3852 30.1198L39.2574 26.2476L37.1025 26.3672C36.6936 26.3917 36.3226 26.1638 36.1549 25.7896C35.9883 25.4175 36.066 24.9892 36.3543 24.701C39.517 21.527 41.7904 17.7427 42.6512 16.2012L39.2676 15.8853C38.92 15.8526 38.6226 15.6451 38.4733 15.3292C38.3241 15.0144 38.3517 14.6535 38.5469 14.3642C42.2924 8.8146 42.7125 4.51411 42.7483 3.25371C41.4879 3.28949 37.1874 3.70962 31.6377 7.45505C31.3484 7.65029 30.9876 7.67687 30.6728 7.52762C30.3569 7.37838 30.1494 7.08091 30.1167 6.73336L29.8008 3.3498C28.2593 4.21154 24.475 6.48394 21.301 9.64669C21.0117 9.93496 20.5844 10.0126 20.2124 9.84602C19.8392 9.67838 19.6123 9.30629 19.6348 8.89843L19.7544 6.74358L15.8822 10.6158C15.6032 10.8948 15.2004 10.9797 14.8324 10.8355C14.4644 10.6914 14.2272 10.3571 14.2119 9.96256C14.1434 8.17674 13.711 3.79345 11.1708 1.54967C10.3704 2.27034 7.83836 4.82078 6.80898 9.03642C6.76784 9.20554 6.68243 9.36067 6.56154 9.48588C6.44064 9.61109 6.2886 9.70188 6.12102 9.74891C5.78164 9.84398 5.41569 9.74789 5.16627 9.49847L3.15964 7.49185C2.1272 9.62931 -0.638934 17.1253 4.84529 27.4078C4.99249 27.6848 5.00067 28.0048 4.86676 28.2879C4.73284 28.5701 4.48138 28.7674 4.17471 28.8287L1.5936 29.3449C2.80289 30.2496 5.07631 31.7809 7.25671 32.3298C7.60938 32.4187 7.88129 32.6937 7.96716 33.0474L8.92395 36.983L12.9658 38.0318C13.3124 38.1217 13.5822 38.3926 13.6691 38.7391C14.216 40.9206 15.7493 43.197 16.655 44.4063L17.1712 41.8252C17.2326 41.5186 17.4299 41.2671 17.712 41.1332C17.8429 41.0708 17.9861 41.0383 18.1311 41.0381Z" fill="#A6A6A6"/>
<path d="M1.91764 44.4953C1.78679 44.4953 1.65595 44.4452 1.55577 44.346C1.46003 44.2501 1.40625 44.1202 1.40625 43.9847C1.40625 43.8492 1.46003 43.7192 1.55577 43.6233L32.1182 13.0599C32.3175 12.8606 32.6415 12.8606 32.8409 13.0599C33.0402 13.2592 33.0402 13.5833 32.8409 13.7826L2.27848 44.345C2.1783 44.4452 2.04848 44.4953 1.91764 44.4953Z" fill="#A6A6A6"/>
<path d="M27.6716 27.1808C27.645 27.1808 27.6184 27.1788 27.5918 27.1747L20.2952 26.0319C20.1882 26.015 20.0893 25.9647 20.0127 25.8881C19.9361 25.8115 19.8858 25.7126 19.8689 25.6056L18.7261 18.309C18.7156 18.2426 18.7184 18.1749 18.7342 18.1096C18.7499 18.0444 18.7784 17.9829 18.818 17.9286C18.8576 17.8744 18.9076 17.8285 18.9649 17.7936C19.0223 17.7587 19.086 17.7355 19.1524 17.7253C19.2187 17.7148 19.2864 17.7176 19.3517 17.7333C19.417 17.7491 19.4785 17.7776 19.5327 17.8172C19.5869 17.8568 19.6328 17.9068 19.6677 17.9641C19.7026 18.0215 19.7258 18.0852 19.736 18.1516L20.8216 25.0802L27.7503 26.1658C27.8841 26.1869 28.004 26.2602 28.0839 26.3696C28.1638 26.479 28.1971 26.6156 28.1765 26.7495C28.1572 26.8696 28.0958 26.9789 28.0033 27.0579C27.9108 27.1369 27.7932 27.1805 27.6716 27.1808ZM35.2677 21.2366C35.2411 21.2366 35.2145 21.2346 35.188 21.2305L26.4633 19.8638C26.3563 19.8469 26.2574 19.7966 26.1808 19.72C26.1042 19.6434 26.0539 19.5445 26.037 19.4375L24.6703 10.7128C24.6599 10.6465 24.6626 10.5788 24.6784 10.5135C24.6942 10.4482 24.7227 10.3867 24.7623 10.3325C24.8019 10.2783 24.8518 10.2324 24.9092 10.1975C24.9665 10.1626 25.0302 10.1394 25.0966 10.1291C25.1629 10.1187 25.2306 10.1214 25.2959 10.1372C25.3612 10.153 25.4227 10.1815 25.4769 10.2211C25.5312 10.2607 25.577 10.3106 25.6119 10.368C25.6468 10.4254 25.67 10.4891 25.6803 10.5554L26.9897 18.9111L35.3464 20.2195C35.4802 20.2406 35.6002 20.3139 35.6801 20.4233C35.76 20.5327 35.7933 20.6693 35.7727 20.8032C35.7539 20.9237 35.6927 21.0336 35.6002 21.1131C35.5076 21.1926 35.3897 21.2364 35.2677 21.2366ZM11.1504 20.2951C11.0543 20.2951 10.9572 20.2675 10.8724 20.2123L7.87418 18.2619C7.63805 18.1076 7.57058 17.7917 7.72391 17.5546C7.87725 17.3174 8.19414 17.251 8.43129 17.4053L11.0768 19.1257L13.1897 16.9453C13.386 16.7429 13.71 16.7378 13.9124 16.9341C14.1148 17.1303 14.12 17.4544 13.9237 17.6568L11.5174 20.1398C11.4182 20.242 11.2843 20.2951 11.1504 20.2951Z" fill="#A6A6A6"/>
<path d="M31.6684 36.1315C31.6418 36.1315 31.6152 36.1294 31.5887 36.1253L13.0977 33.2294C12.9907 33.2126 12.8918 33.1622 12.8152 33.0856C12.7386 33.009 12.6882 32.9101 12.6714 32.8031L9.77545 14.3121C9.7315 14.0331 9.92265 13.7714 10.2017 13.7285C10.4808 13.6855 10.7425 13.8757 10.7854 14.1547L13.6241 32.2777L31.7471 35.1164C31.8809 35.1376 32.0009 35.2108 32.0808 35.3202C32.1607 35.4296 32.194 35.5662 32.1734 35.7001C32.1542 35.8203 32.0928 35.9297 32.0003 36.0087C31.9077 36.0878 31.7901 36.1313 31.6684 36.1315Z" fill="#A6A6A6"/>
<path d="M28.0682 38.2598C27.9006 38.2598 27.737 38.178 27.6389 38.0277L25.6885 35.0295C25.5556 34.8251 25.5852 34.5542 25.7611 34.3835L28.244 31.9772C28.4464 31.7809 28.7705 31.786 28.9667 31.9884C29.163 32.1908 29.1579 32.5149 28.9555 32.7111L26.7751 34.8241L28.4955 37.4686C28.6499 37.7057 28.5824 38.0216 28.3463 38.1759C28.2604 38.2332 28.1633 38.2598 28.0682 38.2598Z" fill="#A6A6A6"/>
</g>
<defs>
<clipPath id="clip0_669_582">
<rect width="46" height="46" fill="white"/>
</clipPath>
</defs>
</svg>
