<svg width="46" height="46" viewBox="0 0 46 46" fill="none" xmlns="http://www.w3.org/2000/svg">
<path d="M44.5625 19.7728C44.5621 19.4295 44.4504 19.0955 44.2441 18.821C44.0378 18.5465 43.748 18.3463 43.4182 18.2505C43.2963 18.217 43.1847 18.1535 43.0937 18.0657C43.0026 17.978 42.935 17.8688 42.8971 17.7481C42.8571 17.6284 42.8477 17.5005 42.8698 17.3762C42.8919 17.2519 42.9448 17.1351 43.0236 17.0366C43.234 16.7651 43.3507 16.4328 43.3563 16.0894C43.3619 15.746 43.256 15.41 43.0545 15.1319C42.0711 13.7646 40.678 12.7457 39.077 12.2229C37.476 11.7001 35.7501 11.7004 34.1492 12.2238C32.9748 12.6047 31.561 13.3702 30.1781 14.3398C30.6748 12.7176 30.9573 11.1414 30.9573 9.90512C30.9573 6.43859 28.7399 3.39684 25.4394 2.33381C25.1126 2.22819 24.7604 2.23134 24.4355 2.34278C24.1107 2.45422 23.8307 2.66795 23.6375 2.95194C23.3478 3.38534 22.6528 3.38534 22.3624 2.95194C22.1689 2.6684 21.8889 2.45502 21.5641 2.34363C21.2394 2.23223 20.8874 2.22879 20.5605 2.33381C18.956 2.84628 17.5562 3.85633 16.5641 5.21761C15.5721 6.5789 15.0392 8.2207 15.0427 9.90512C15.0427 10.5103 15.1095 11.2017 15.2432 11.9593C15.2596 12.0523 15.294 12.1411 15.3447 12.2208C15.3954 12.3004 15.4612 12.3693 15.5385 12.4235C15.6158 12.4777 15.703 12.5161 15.7951 12.5366C15.8873 12.5571 15.9826 12.5593 16.0755 12.5429C16.1685 12.5266 16.2574 12.4921 16.337 12.4415C16.4166 12.3908 16.4855 12.3249 16.5397 12.2477C16.5939 12.1704 16.6324 12.0832 16.6529 11.991C16.6733 11.8989 16.6755 11.8036 16.6592 11.7106C16.5398 11.035 16.4795 10.4277 16.4795 9.90512C16.4767 8.52511 16.9133 7.18004 17.7261 6.06481C18.539 4.94958 19.6858 4.12211 21.0004 3.70231C21.068 3.68147 21.1341 3.70087 21.1679 3.7519C21.5776 4.36428 22.2625 4.73012 23 4.73012C23.7374 4.73012 24.4224 4.36428 24.8328 3.75119C24.8658 3.70087 24.9356 3.68075 24.9995 3.70231C26.3142 4.12211 27.461 4.94958 28.2738 6.06481C29.0866 7.18004 29.5233 8.52511 29.5205 9.90512C29.5205 12.6673 27.9284 17.3528 25.7535 19.8382C25.136 19.4477 24.4423 19.1933 23.7187 19.0922V13.1409C23.7187 12.9503 23.643 12.7675 23.5082 12.6327C23.3734 12.4979 23.1906 12.4222 23 12.4222C22.8093 12.4222 22.6265 12.4979 22.4917 12.6327C22.3569 12.7675 22.2812 12.9503 22.2812 13.1409V19.0922C21.808 19.1576 21.3463 19.2885 20.9091 19.481C18.9958 16.297 14.725 13.1567 11.8507 12.2231C10.2498 11.6994 8.52379 11.6991 6.92267 12.222C5.32155 12.745 3.92852 13.7642 2.94541 15.1319C2.74396 15.41 2.63809 15.746 2.64366 16.0894C2.64924 16.4328 2.76595 16.7651 2.97632 17.0366C3.13732 17.2407 3.18332 17.5009 3.10282 17.7481C3.065 17.8685 2.99752 17.9775 2.9066 18.0651C2.81567 18.1526 2.70421 18.2159 2.58244 18.2491C2.25245 18.345 1.96247 18.5454 1.75602 18.8202C1.54958 19.0949 1.4378 19.4292 1.43747 19.7728C1.42919 21.4572 1.95733 23.1004 2.94538 24.4645C3.93343 25.8286 5.33009 26.8427 6.93304 27.36C8.1046 27.7409 9.69735 27.9558 11.3857 27.9853C10.0323 29.0037 8.87869 30.1128 8.15132 31.1118C7.15858 32.4725 6.62485 34.1139 6.62743 35.7983C6.63001 37.4826 7.16879 39.1224 8.16569 40.48C8.36798 40.7577 8.65478 40.9623 8.98313 41.0632C9.31147 41.1642 9.66369 41.156 9.98701 41.0399C10.105 40.9952 10.2324 40.9807 10.3575 40.9979C10.4826 41.0151 10.6013 41.0634 10.7029 41.1384C10.9135 41.2915 11.0285 41.5287 11.0191 41.7903C11.0085 42.1335 11.1094 42.4709 11.3068 42.7519C11.5041 43.0328 11.7873 43.2422 12.1138 43.3486C13.713 43.8771 15.439 43.8827 17.0417 43.3646C18.6443 42.8466 20.0404 41.8317 21.0277 40.4671C22.8081 38.0162 24.4145 32.9734 24.091 29.2726C24.558 29.172 25.0087 29.0067 25.4301 28.7817L28.9261 33.593C28.9814 33.6695 29.0514 33.7343 29.1319 33.7837C29.2124 33.8332 29.3018 33.8662 29.3951 33.881C29.4884 33.8957 29.5837 33.8919 29.6755 33.8698C29.7673 33.8476 29.8539 33.8075 29.9302 33.7518C30.0842 33.6397 30.1874 33.4711 30.2172 33.283C30.247 33.0949 30.2009 32.9026 30.089 32.7484L26.5916 27.9335C27.1173 27.4263 27.53 26.8137 27.8027 26.1359C31.0227 26.8691 35.0613 29.7225 36.685 31.9571C37.4984 33.0719 37.9358 34.4167 37.9337 35.7967C37.9317 37.1768 37.4903 38.5203 36.6735 39.6326C36.6325 39.688 36.5657 39.7103 36.5096 39.6901C36.1697 39.5646 35.8041 39.5249 35.4453 39.5747C35.0864 39.6245 34.7454 39.7622 34.4525 39.9755C34.1591 40.1882 33.9227 40.47 33.7643 40.796C33.606 41.122 33.5306 41.4821 33.5448 41.8442C33.5469 41.9053 33.5045 41.9607 33.4384 41.9822C32.1283 42.4151 30.7145 42.4197 29.4016 41.9955C28.0887 41.5713 26.9449 40.7402 26.1359 39.6226C25.8268 39.1971 25.5185 38.6702 25.2188 38.0557C25.1352 37.8843 24.9869 37.7532 24.8066 37.6911C24.6264 37.629 24.4288 37.6411 24.2574 37.7247C24.0861 37.8083 23.9549 37.9565 23.8928 38.1368C23.8308 38.3171 23.8429 38.5147 23.9264 38.686C24.2628 39.3746 24.615 39.974 24.9722 40.4671C25.9594 41.8319 27.3555 42.8469 28.9582 43.365C30.5609 43.8831 32.2869 43.8773 33.8862 43.3486C34.2129 43.2421 34.4962 43.0325 34.6936 42.7513C34.891 42.47 34.9918 42.1323 34.9808 41.7889C34.9751 41.6627 35.0011 41.5371 35.0563 41.4235C35.1115 41.3099 35.1943 41.2119 35.2971 41.1384C35.3986 41.0634 35.5174 41.0151 35.6425 40.9979C35.7675 40.9807 35.8949 40.9952 36.0129 41.0399C36.3363 41.1556 36.6884 41.1636 37.0167 41.0627C37.3449 40.9618 37.6317 40.7574 37.8343 40.48C38.8312 39.1224 39.3699 37.4826 39.3725 35.7983C39.3751 34.1139 38.8414 32.4725 37.8486 31.1118C37.122 30.1128 35.9684 29.0037 34.6143 27.9853C36.3019 27.9558 37.8939 27.7409 39.0669 27.36C40.6699 26.8427 42.0665 25.8286 43.0546 24.4645C44.0426 23.1004 44.5708 21.4572 44.5625 19.7728ZM13.6591 26.4694C11.3318 26.6793 8.92469 26.496 7.37722 25.9929C6.06398 25.5692 4.91974 24.7384 4.11027 23.6208C3.3008 22.5033 2.86814 21.157 2.87497 19.7772C2.87497 19.7074 2.91451 19.6499 2.97272 19.6334C3.32164 19.5353 3.64089 19.3524 3.90209 19.1011C4.16329 18.8498 4.35834 18.5379 4.46988 18.193C4.58223 17.8485 4.60775 17.4816 4.54418 17.1249C4.4806 16.7682 4.32991 16.4327 4.10547 16.1482C4.0681 16.1 4.06954 16.0303 4.11051 15.9742C4.91592 14.8537 6.0572 14.0186 7.36898 13.5901C8.68077 13.1616 10.0949 13.1619 11.4065 13.5909C14.035 14.4455 17.9953 17.4038 19.6873 20.2393C19.1273 20.7088 18.6726 21.2909 18.3525 21.9478L12.6924 20.1092C12.5117 20.0527 12.3161 20.0697 12.1479 20.1565C11.9798 20.2434 11.8526 20.393 11.7941 20.5731C11.7357 20.7531 11.7505 20.9489 11.8355 21.118C11.9205 21.2871 12.0688 21.4158 12.2482 21.4763L17.9069 23.3141C17.8205 23.7844 17.8012 24.2645 17.8494 24.7401C16.4982 25.0528 15.0535 25.6803 13.6785 26.4716C13.6713 26.4716 13.6663 26.4687 13.6591 26.4694ZM19.8648 39.6218C19.0559 40.7398 17.912 41.5712 16.5989 41.9956C15.2859 42.42 13.8718 42.4153 12.5616 41.9822C12.4954 41.9607 12.453 41.9053 12.4552 41.8442C12.4695 41.4821 12.3941 41.122 12.2357 40.796C12.0773 40.47 11.8409 40.1881 11.5474 39.9755C11.2545 39.7623 10.9135 39.6247 10.5546 39.5751C10.1957 39.5254 9.83015 39.5652 9.49035 39.6908C9.43357 39.7102 9.36744 39.688 9.32647 39.6326C8.50953 38.5202 8.06803 37.1765 8.06596 35.7964C8.06389 34.4162 8.50136 33.0712 9.31497 31.9564C10.9393 29.7211 14.9773 26.8683 18.1973 26.1359C18.4718 26.8187 18.8873 27.4297 19.4084 27.9335L15.9109 32.7484C15.8533 32.8247 15.8115 32.9116 15.7879 33.0042C15.7643 33.0968 15.7594 33.1931 15.7735 33.2876C15.7875 33.3821 15.8203 33.4729 15.8698 33.5545C15.9194 33.6362 15.9847 33.7072 16.062 33.7634C16.1393 33.8195 16.2271 33.8597 16.3201 33.8815C16.4131 33.9033 16.5095 33.9064 16.6037 33.8905C16.6979 33.8747 16.788 33.8402 16.8688 33.7891C16.9495 33.738 17.0192 33.6713 17.0739 33.593L20.5699 28.7817C21.2154 29.1248 21.9268 29.3262 22.6564 29.3725C22.9561 32.6629 21.4942 37.3786 19.8648 39.6218ZM23 27.9529C20.9379 27.9529 19.2603 26.2754 19.2603 24.2133C19.2603 22.1512 20.9379 20.4743 23 20.4743C25.0621 20.4743 26.7396 22.1519 26.7396 24.2133C26.7396 26.2747 25.0621 27.9529 23 27.9529ZM32.315 26.4673C30.9414 25.6781 29.4996 25.0521 28.1505 24.7401C28.1678 24.5676 28.1771 24.3915 28.1771 24.2133C28.1771 23.9064 28.1448 23.6067 28.093 23.3148L33.7518 21.4763C33.9311 21.4158 34.0794 21.2871 34.1644 21.118C34.2494 20.9489 34.2643 20.7531 34.2058 20.5731C34.1473 20.393 34.0202 20.2434 33.852 20.1565C33.6838 20.0697 33.4882 20.0527 33.3076 20.1092L27.6474 21.9478C27.4376 21.5191 27.1696 21.1215 26.851 20.7662C27.761 19.7204 28.5617 18.3655 29.21 16.9165C30.9752 15.3712 33.0366 14.0976 34.5934 13.5909C35.9049 13.1622 37.3187 13.162 38.6303 13.5904C39.9419 14.0187 41.0831 14.8534 41.8887 15.9735C41.9297 16.0303 41.9318 16.1 41.8945 16.1482C41.4381 16.7268 41.3022 17.4915 41.5301 18.193C41.7579 18.8945 42.3171 19.4322 43.0272 19.6334C43.0847 19.6499 43.125 19.7089 43.125 19.7772C43.1318 21.157 42.6991 22.5033 41.8897 23.6208C41.0802 24.7384 39.936 25.5692 38.6227 25.9929C37.0681 26.4982 34.6516 26.6815 32.315 26.4673Z" fill="#A6A6A6"/>
</svg>
