<svg width="48" height="48" viewBox="0 0 48 48" fill="none" xmlns="http://www.w3.org/2000/svg">
<path d="M13.1218 35.1512C10.2211 32.3226 8.4209 28.3714 8.4209 24C8.4209 15.3959 15.3959 8.4209 24 8.4209C27.2061 8.4209 30.1864 9.38904 32.6632 11.0504M35.1502 13.12C37.8908 15.9272 39.579 19.7664 39.579 24C39.579 32.604 32.604 39.579 24 39.579C20.9299 39.579 18.0671 38.6914 15.6551 37.1578" stroke="#A6A6A6" stroke-width="1.5" stroke-miterlimit="10" stroke-linecap="round" stroke-linejoin="round"/>
<path d="M16.626 3.81995L17.1545 1.73466C17.3415 0.996986 18.2652 0.749861 18.7956 1.29502L20.6504 3.20075C22.4858 5.08612 25.5142 5.08612 27.3496 3.20075L29.2044 1.29502C29.7348 0.749861 30.6585 0.996986 30.8455 1.73466L31.4989 4.31235C32.1459 6.8632 34.768 8.37742 37.3003 7.66196L39.8595 6.9391C40.5916 6.73177 41.2682 7.40836 41.0609 8.14048L40.338 10.6997C39.6226 13.232 41.1368 15.8541 43.6876 16.5011L46.2653 17.1545C47.003 17.3415 47.2501 18.2652 46.705 18.7956L44.7993 20.6504C42.9139 22.4858 42.9139 25.5142 44.7993 27.3496L46.705 29.2044C47.2501 29.7348 47.003 30.6585 46.2653 30.8455L43.6876 31.4989C41.1368 32.1459 39.6226 34.768 40.338 37.3003L41.0609 39.8595C41.2682 40.5916 40.5916 41.2682 39.8595 41.0609L37.3003 40.338C34.768 39.6226 32.1459 41.1368 31.4989 43.6876L30.8455 46.2653C30.6585 47.003 29.7348 47.2501 29.2044 46.705L27.3496 44.7993C25.5142 42.9139 22.4858 42.9139 20.6504 44.7993L18.7956 46.705C18.2652 47.2501 17.3415 47.003 17.1545 46.2653L16.5011 43.6876C15.8541 41.1368 13.232 39.6226 10.6997 40.338L8.14048 41.0609C7.40836 41.2682 6.73177 40.5916 6.9391 39.8595L7.66196 37.3003C8.37742 34.768 6.8632 32.1459 4.31235 31.4989L1.73466 30.8455C0.996986 30.6585 0.749861 29.7348 1.29502 29.2044L3.20075 27.3496C5.08612 25.5142 5.08612 22.4858 3.20075 20.6504L1.29502 18.7956C0.749861 18.2652 0.996986 17.3415 1.73466 17.1545L4.31235 16.5011C6.8632 15.8541 8.37742 13.232 7.66196 10.6997L6.9391 8.14048C6.73177 7.40836 7.40836 6.73177 8.14048 6.9391L10.6997 7.66196C12.3083 8.11642 13.9539 7.67122 15.1053 6.63181" stroke="#A6A6A6" stroke-width="1.5" stroke-miterlimit="10" stroke-linecap="round" stroke-linejoin="round"/>
</svg>
